<svg xmlns="http://www.w3.org/2000/svg" viewBox="-49 141 512 512"><path d="M324.333 439.432c58.813 0 106.667-47.854 106.667-106.667 0-54.979-88.083-174.302-98.125-187.719-4.042-5.396-13.042-5.396-17.083 0-10.042 13.417-98.125 132.74-98.125 187.719 0 58.813 47.854 106.667 106.666 106.667zm0-269.927c29.917 41.708 85.333 126.563 85.333 163.26 0 47.052-38.271 85.333-85.333 85.333S239 379.818 239 332.766c0-36.677 55.417-121.542 85.333-163.261z"/><path d="M324.333 396.766c5.896 0 10.667-4.771 10.667-10.667s-4.771-10.667-10.667-10.667c-23.521 0-42.667-19.135-42.667-42.667a10.66 10.66 0 0 0-10.667-10.667 10.66 10.66 0 0 0-10.667 10.667c.001 35.292 28.71 64.001 64.001 64.001zM399 514.333c-20.827 0-64 11.598-85.885 17.885-2.904-30.609-42.125-41.444-82.656-49.677-18.5-3.75-32.271-10.385-45.583-16.813-16.417-7.917-31.917-15.396-52.542-15.396-23.618 0-45.142 4.831-57.288 8.173-3.211-11.172-12.32-20.177-24.421-22.59L-36.25 418.54a10.813 10.813 0 0 0-8.854 2.208A10.712 10.712 0 0 0-49 429v170.667a10.66 10.66 0 0 0 10.667 10.667H28.5c13.172 0 24.397-8.379 29.223-20.142C81.625 601.586 192.081 653 239 653c41.375 0 126.562-41.875 182.917-69.583 14.688-7.219 26.833-13.198 34.708-16.646A10.681 10.681 0 0 0 463 557c0-25.125-26.312-42.667-64-42.667zM28.5 589h-56.167V442.01l74.125 14.823c5.542 1.115 9.271 6.365 8.458 11.969L39.063 579.844C38.313 585.063 33.771 589 28.5 589zm384-24.729c-51.271 25.208-137.083 67.396-173.5 67.396-38.792 0-140.688-45.427-176.667-62.927-.04-.02-.085-.013-.125-.031l12.551-87.904c7.772-2.431 31.518-9.138 57.574-9.138 15.75 0 27.896 5.865 43.292 13.281 13.813 6.667 29.479 14.219 50.583 18.51 46.354 9.396 66.125 19.031 66.125 32.208 0 2.604-.792 4.208-2.813 5.719-6.771 5.073-33.25 13.594-132.813-15.948-5.708-1.688-11.583 1.563-13.271 7.198-1.667 5.646 1.542 11.583 7.188 13.26 49.146 14.563 86.708 21.823 113.333 21.823 17.354 0 30.083-3.083 38.313-9.24.708-.529 1.227-1.176 1.871-1.745.671-.074 1.332.005 2.004-.203C325 550.729 378.438 535.667 399 535.667c17.396 0 35.708 5.281 41.083 15.208-7.437 3.5-16.833 8.125-27.583 13.396z"/></svg>