<svg xmlns="http://www.w3.org/2000/svg" xmlns:xlink="http://www.w3.org/1999/xlink" viewBox="0 0 393 406"><defs><path id="a" d="M11 6h361.92v390.72H11z"/></defs><clipPath id="b"><use xlink:href="#a" overflow="visible"/></clipPath><path d="M114.094 262.802h214.48c24.321 0 44.16-19.844 44.16-44.16v-91.203c0-.161 0-.321-.078-.481 0-.156-.082-.398-.082-.558 0-.161-.078-.321-.078-.481-.082-.16-.082-.32-.16-.559-.082-.16-.082-.32-.16-.48-.082-.16-.082-.32-.16-.48a4.01 4.01 0 0 1-.243-.559c-.078-.16-.16-.32-.238-.402l-.238-.481c-.082-.156-.16-.238-.242-.398-.078-.16-.239-.321-.321-.481-.078-.16-.16-.238-.32-.398-.078-.16-.238-.242-.32-.403-.078-.16-.239-.238-.321-.398-.078-.16-.238-.238-.32-.32l-.398-.399c-.16-.082-.239-.242-.399-.32-.16-.082-.32-.242-.48-.32-.16-.082-.242-.161-.403-.243-.16-.078-.32-.16-.476-.32l-.961-.476-.481-.243c-.16-.078-.32-.078-.48-.16-.16-.078-.398-.16-.559-.16-.16 0-.32-.078-.402-.078-.238-.082-.398-.082-.641-.082-.078 0-.16-.078-.32-.078l-271.84-37.52V42.239c0-.398 0-.8-.078-1.121 0-.078 0-.16-.082-.316 0-.242-.078-.481-.078-.723-.078-.238-.078-.398-.16-.64 0-.161-.078-.239-.078-.399l-.242-.719c0-.082-.079-.242-.079-.32a2.416 2.416 0 0 0-.32-.641c-.082-.082-.082-.242-.16-.32-.082-.16-.16-.32-.32-.48-.082-.16-.161-.239-.243-.399-.078-.16-.16-.242-.238-.402-.082-.16-.238-.32-.32-.481l-.719-.718-.242-.239c-.16-.16-.32-.32-.559-.48-.082-.082-.242-.16-.32-.242-.16-.16-.32-.239-.48-.399a6.703 6.703 0 0 0-.641-.398c-.078-.082-.16-.082-.238-.16-.321-.16-.719-.321-1.039-.481L26.016 7.36c-5.52-2.32-11.84.239-14.161 5.758-2.32 5.524.239 11.84 5.758 14.16L69.934 49.36v236.641c0 22.399 16.8 40.957 38.48 43.758-3.918 6.562-6.238 14.242-6.238 22.402 0 24.078 19.597 43.598 43.597 43.598s43.602-19.598 43.602-43.598c0-8-2.16-15.601-6-22h97.121c-3.84 6.481-6 14-6 22 0 24.078 19.598 43.598 43.598 43.598s43.601-19.598 43.601-43.598-19.601-43.601-43.601-43.601h-204c-12.481 0-22.559-10.16-22.559-22.559V256.72c6.559 3.84 14.32 6.082 22.559 6.082zm53.761 89.277c0 12.16-9.921 22-22 22-12.082 0-22-9.918-22-22 0-12.078 9.918-22 22-22 12.079 0 22 9.84 22 22zm172.321 0c0 12.16-9.922 22-22 22-12.082 0-22-9.918-22-22 0-12.078 9.918-22 22-22 12.078 0 22 9.84 22 22zM328.574 241.2h-214.48c-12.481 0-22.559-10.16-22.559-22.558V101.919l259.602 35.762v80.879c0 12.558-10.16 22.64-22.563 22.64zm0 0" clip-path="url(#b)"/></svg>