<svg xmlns="http://www.w3.org/2000/svg" viewBox="-49 141 512 512"><path d="M398.933 244.629c-.034-3.076-1.224-6.09-3.485-8.352l-91.765-91.765-.011-.008a11.942 11.942 0 0 0-8.466-3.503H40.278c-13.917 0-25.237 11.32-25.237 25.237v461.525c0 13.916 11.32 25.237 25.237 25.237h333.444c13.916 0 25.237-11.32 25.237-25.237v-383.01c.001-.044-.022-.081-.026-.124zm-90.476-11.864a1.265 1.265 0 0 1-1.262-1.262v-49.572l50.834 50.834h-49.572zm65.265 396.259H40.278a1.263 1.263 0 0 1-1.261-1.261V166.237c0-.695.566-1.261 1.261-1.261h242.94v66.527c0 13.916 11.322 25.239 25.239 25.239h66.527v371.021a1.264 1.264 0 0 1-1.262 1.261z"/><path d="M313.088 305.014H100.912c-6.62 0-11.988 5.367-11.988 11.988 0 6.62 5.368 11.988 11.988 11.988h212.175c6.62 0 11.988-5.368 11.988-11.988.001-6.621-5.368-11.988-11.987-11.988zM313.088 377.353H100.912c-6.62 0-11.988 5.368-11.988 11.988 0 6.62 5.368 11.988 11.988 11.988h212.175c6.62 0 11.988-5.368 11.988-11.988.001-6.62-5.368-11.988-11.987-11.988zM313.088 449.691H100.912c-6.62 0-11.988 5.368-11.988 11.988 0 6.621 5.368 11.988 11.988 11.988h212.175c6.62 0 11.988-5.367 11.988-11.988.001-6.619-5.368-11.988-11.987-11.988zM207 522.031H100.912c-6.62 0-11.988 5.368-11.988 11.988 0 6.621 5.368 11.988 11.988 11.988H207c6.62 0 11.988-5.367 11.988-11.988 0-6.621-5.368-11.988-11.988-11.988z"/></svg>