<svg xmlns="http://www.w3.org/2000/svg" viewBox="0 0 100 100"><path d="M-23.492 123.465c-2.153-.492-3.539-2.586-3.074-4.746l12.644-59.238a4.001 4.001 0 0 1 7.824 1.672l-12.644 59.234c-.403 1.879-2.082 3.687-4.75 3.078zm0 0M116.844 120.387l-12.649-59.234a4.001 4.001 0 0 1 7.825-1.672l12.648 59.238c.461 2.16-.926 4.242-3.078 4.746-2.344.547-4.348-1.199-4.746-3.078zm0 0"/><path d="M171.273 10.856c-11.453-42.45-26.57-68.789-26.746-68.989-.457-.515-10.8-12.066-29.152-16.988C113.676-96.68 87.457-111 49.047-111c-38.406 0-64.625 14.32-66.324 35.879-18.348 4.922-28.696 16.473-29.149 16.988-.176.2-15.297 26.543-26.75 68.989-10.547 39.101-20.5 101.015-7.996 173.933.008.043 3.328 22.535 3.328 22.535a4.002 4.002 0 0 0 3.957 3.418h27.289a4.003 4.003 0 0 0 3.961-3.441l3.11-22.063 3.363-6.996.937 4.098a4.004 4.004 0 0 0 3.903 3.109h160.746a4.003 4.003 0 0 0 3.902-3.109l.938-4.098 3.363 6.996 3.109 22.063a4.004 4.004 0 0 0 3.961 3.441h27.289a4.001 4.001 0 0 0 3.957-3.418s3.321-22.492 3.329-22.535c12.503-72.918 2.55-134.832-7.997-173.933zm-56.574-77.84c11.613 3.457 19.43 9.918 22.438 12.754l-8.926 39.332h-75.16v-15.856l8.23-16.984c8.707.668 34.77 1.629 47.211-9.442 3.102-2.765 5.172-6.046 6.207-9.804zM-30.203-6.898h75.25v161.054h-78.313c-2.73-16.628-13.828-93.832 3.063-161.054zm-1.43 169.054h76.684v3.645h-75.848l-.836-3.645zM49.047-40.84l-6.074-12.539a4.044 4.044 0 0 0-.711-1.222 186.083 186.083 0 0 1-5.614-6.789h24.797a190.23 190.23 0 0 1-5.609 6.789c-.32.371-.551.789-.711 1.222L49.047-40.84zM30.691-69.39c-3.968-5.684-6.769-10.61-6.769-12.75 0-4.493 10.332-7.629 25.125-7.629 14.797 0 25.129 3.136 25.129 7.629 0 2.14-2.801 7.07-6.77 12.75H30.691zM49.047-103c34.398 0 58.422 12.387 58.422 30.125 0 3.961-1.407 7.141-4.293 9.715-7.864 7-24.981 8.078-36.227 7.727 6.387-7.95 15.227-20.133 15.227-26.707 0-10.082-11.766-15.629-33.129-15.629-21.359 0-33.125 5.547-33.125 15.629 0 6.574 8.84 18.757 15.223 26.707-11.247.351-28.36-.727-36.223-7.727-2.887-2.574-4.293-5.754-4.293-9.715C-9.371-90.613 14.652-103 49.047-103zm-65.649 36.016c1.036 3.758 3.11 7.043 6.211 9.804 12.438 11.071 38.5 10.11 47.207 9.442l8.235 16.984v15.856h-75.16l-8.93-39.344c2.988-2.832 10.762-9.273 22.437-12.742zm-33.472 269.726h-20.36l-.484-3.316h21.313l-.469 3.316zm1.594-11.316h-23.618l-.484-3.313h24.57l-.468 3.313zm2.542-11.313h-27.906c-11.375-69.91-1.816-129.214 8.317-166.882 7.113-26.45 15.472-46.161 20.648-57.055l7.457 32.859c-19.598 75.196-4.344 163.211-3.207 169.512.02.168 1.609 7.184 1.609 7.184l-6.918 14.382zm17.801-2.66l-.832-3.652h74.016v3.652h-73.184zm154.371 0H53.051v-3.652h74.019l-.836 3.652zm2.664-11.652H53.047v-3.645h76.683l-.832 3.645zm2.465-11.645H53.047V-6.898h75.254c16.89 67.222 5.793 144.426 3.062 161.054zm37.168 48.586h-20.359l-.465-3.316h21.313l-.489 3.316zm1.664-11.316h-23.617l-.469-3.313h24.571l-.485 3.313zm1.746-11.313h-27.902l-6.918-14.382s1.59-7.016 1.606-7.184c1.136-6.301 16.39-94.316-3.207-169.512l7.46-32.867c5.149 10.84 13.461 30.422 20.571 56.774 10.176 37.726 19.785 97.136 8.39 167.171zm0 0"/></svg>