<svg xmlns="http://www.w3.org/2000/svg" viewBox="-49 141 512 512"><path d="M79 141c-17.6 0-32 14.4-32 32v448c0 17.6 14.4 32 32 32h320c17.6 0 32-14.4 32-32V269L303 141H79z" fill="#e2e5e7"/><path d="M335 269h96L303 141v96c0 17.6 14.4 32 32 32z" fill="#b0b7bd"/><path fill="#cad1d8" d="M431 365l-96-96h96z"/><path d="M367 557c0 8.8-7.2 16-16 16H-1c-8.8 0-16-7.2-16-16V397c0-8.8 7.2-16 16-16h352c8.8 0 16 7.2 16 16v160z" fill="#f15642"/><g fill="#fff"><path d="M52.744 444.152c0-4.224 3.328-8.832 8.688-8.832h29.552c16.64 0 31.616 11.136 31.616 32.48 0 20.224-14.976 31.488-31.616 31.488h-21.36v16.896c0 5.632-3.584 8.816-8.192 8.816-4.224 0-8.688-3.184-8.688-8.816v-72.032zm16.88 7.28v31.872h21.36c8.576 0 15.36-7.568 15.36-15.504 0-8.944-6.784-16.368-15.36-16.368h-21.36zM147.656 525c-4.224 0-8.832-2.304-8.832-7.92v-72.672c0-4.592 4.608-7.936 8.832-7.936h29.296c58.464 0 57.184 88.528 1.152 88.528h-30.448zm8.064-72.912V509.4h21.232c34.544 0 36.08-57.312 0-57.312H155.72zM254.872 453.112v20.336h32.624c4.608 0 9.216 4.608 9.216 9.072 0 4.224-4.608 7.68-9.216 7.68h-32.624v26.864c0 4.48-3.184 7.92-7.664 7.92-5.632 0-9.072-3.44-9.072-7.92v-72.672c0-4.592 3.456-7.936 9.072-7.936h44.912c5.632 0 8.96 3.344 8.96 7.936 0 4.096-3.328 8.704-8.96 8.704h-37.248v.016z"/></g><path d="M351 573H47v16h304c8.8 0 16-7.2 16-16v-16c0 8.8-7.2 16-16 16z" fill="#cad1d8"/></svg>