<svg xmlns="http://www.w3.org/2000/svg" xmlns:xlink="http://www.w3.org/1999/xlink" viewBox="0 0 453 430"><defs><path id="a" d="M24 17h392v392H24z"/></defs><clipPath id="b"><use xlink:href="#a" overflow="visible"/></clipPath><path d="M411.199 381.16l-94.238-94.238c23.359-28.481 37.437-64.961 37.437-104.723C354.398 91 280.398 17 189.199 17 97.922 17 24 91 24 182.199s73.922 165.199 165.199 165.199c39.762 0 76.16-14 104.641-37.359l94.238 94.16a16.316 16.316 0 0 0 23.121 0c6.403-6.32 6.403-16.719 0-23.039zm-222-66.64c-73.039 0-132.398-59.36-132.398-132.321S116.16 49.801 189.199 49.801c72.961 0 132.403 59.437 132.403 132.398S262.16 314.52 189.199 314.52zm0 0" clip-path="url(#b)"/></svg>