<svg xmlns="http://www.w3.org/2000/svg" viewBox="0 0 358 447"><path d="M297.84 397.121V66.398C297.84 49.68 284.238 36 267.441 36H92.398C75.68 36 62 49.602 62 66.398v330.801c0 16.723 13.602 30.403 30.398 30.403h175.043c16.719-.082 30.399-13.68 30.399-30.481zM81.602 106.48H278.16v222.559H81.602V106.48zm10.796-50.878h175.043c5.918 0 10.797 4.796 10.797 10.796v20.481H81.602V66.398c0-6 4.878-10.796 10.796-10.796zM81.602 397.121v-48.562H278.16v48.562c0 5.918-4.801 10.801-10.801 10.801H92.398c-5.918 0-10.796-4.801-10.796-10.801zm0 0"/><path d="M199.762 369.281H160a9.832 9.832 0 0 0-9.84 9.84 9.834 9.834 0 0 0 9.84 9.84h39.762a9.836 9.836 0 0 0 9.84-9.84 9.834 9.834 0 0 0-9.84-9.84zm0 0"/></svg>