<svg xmlns="http://www.w3.org/2000/svg" xmlns:xlink="http://www.w3.org/1999/xlink" viewBox="0 0 274 269"><defs><path id="a" d="M26 12h224.88v238.8H26z"/></defs><clipPath id="b"><use xlink:href="#a" overflow="visible"/></clipPath><path d="M138.277 145.47c33.289 0 60.094-40.011 60.094-73.14 0-33.133-26.961-60.09-60.094-60.09-33.132 0-60.093 26.957-60.093 60.094 0 33.125 26.804 73.136 60.093 73.136zm0-117.418c24.414 0 44.278 19.864 44.278 44.282 0 25.265-20.848 57.324-44.278 57.324C114.848 129.658 94 97.599 94 72.334c0-24.418 19.863-44.282 44.277-44.282zm0 0M250.445 240.635l-3.078-18.481c-6.414-38.477-39.383-66.406-78.39-66.406h-61.399c-39.008 0-71.976 27.929-78.39 66.406l-3.079 18.481a7.9 7.9 0 0 0 1.766 6.41 7.902 7.902 0 0 0 6.031 2.797h208.742a7.902 7.902 0 0 0 6.032-2.797 7.897 7.897 0 0 0 1.765-6.41zm-102.98-69.071l-9.188 7.809-9.187-7.809h18.375zm63.949 62.461v-18.183c0-4.368-3.539-7.907-7.906-7.907s-7.906 3.539-7.906 7.907v18.183H80.953v-18.183a7.909 7.909 0 0 0-15.816 0v18.183H43.242l1.543-9.269c4.981-29.887 29.965-51.825 59.961-53.129l28.41 24.144a7.894 7.894 0 0 0 5.121 1.883 7.89 7.89 0 0 0 5.121-1.883l28.411-24.144c29.996 1.304 54.976 23.242 59.961 53.129l1.542 9.269h-21.898zm0 0" clip-path="url(#b)"/></svg>