<svg xmlns="http://www.w3.org/2000/svg" width="55" height="78" viewBox="0 0 55 78">
  <defs>
    <style>
      .cls-1 {
        fill: #eff2f4;
      }

      .cls-1, .cls-3, .cls-4, .cls-5 {
        fill-rule: evenodd;
      }

      .cls-2, .cls-3 {
        fill: none;
      }

      .cls-2, .cls-3, .cls-4 {
        stroke: #282832;
      }

      .cls-2, .cls-3, .cls-4, .cls-5 {
        stroke-width: 1px;
      }

      .cls-4, .cls-5 {
        fill: #ea6924;
      }

      .cls-5 {
        stroke: #000;
      }
    </style>
  </defs>
  <path class="cls-1" d="M10.714,52.389v4.269l18.349,3.2,9.714-2.134,6.476-2.134V53.456l-5.4,2.134L29.062,57.725l-8.635-1.067Z"/>
  <path class="cls-1" d="M22.586,21.442l-5.4,12.806V44.919L26.9,21.442H22.586Z"/>
  <path id="Shape_157_copy" data-name="Shape 157 copy" class="cls-1" d="M33.38,21.442l5.4,12.806V44.919L29.062,21.442H33.38Z"/>
  <path class="cls-1" d="M9.635,52.389l3.238-3.2,7.555-3.2H34.459s8.26,1.845,8.635,2.134,3.238,3.2,3.238,3.2l-4.317,3.2h3.238L31.221,49.188l-9.714,1.067-8.635,4.268H9.635V52.389Z"/>
  <ellipse class="cls-2" cx="27.984" cy="51.313" rx="18.359" ry="6.406"/>
  <path id="Ellipse_7_copy" data-name="Ellipse 7 copy" class="cls-3" d="M43.544,56.464c1.767,0.984,2.788,2.148,2.788,3.394,0,3.536-8.215,6.4-18.348,6.4s-18.349-2.867-18.349-6.4c0-1.29,1.093-2.49,2.973-3.5C19.707,52.568,36.2,52.372,43.544,56.464ZM28.523,40.651c10.432,0,18.888,4.061,18.888,9.071s-8.456,9.07-18.888,9.07S8.555,54.731,8.555,49.721,18.091,40.651,28.523,40.651Z"/>
  <path class="cls-3" d="M12.873,53.456s5-4.424,16.19-4.268,12.952,5.335,12.952,5.335"/>
  <path class="cls-3" d="M10.714,52.389v7.47"/>
  <path id="Shape_140_copy" data-name="Shape 140 copy" class="cls-3" d="M46.332,52.389v7.47"/>
  <path class="cls-4" d="M7.476,52.389s3.8,5.983,21.587,6.4c15.058,0.356,19.428-7.47,19.428-7.47v6.4s-4.2,6.416-19.428,6.4-21.587-6.4-21.587-6.4V52.389Z"/>
  <path class="cls-3" d="M15.031,57.725v3.2"/>
  <path id="Shape_143_copy" data-name="Shape 143 copy" class="cls-3" d="M18.269,58.792v3.2"/>
  <path id="Shape_143_copy_2" data-name="Shape 143 copy 2" class="cls-3" d="M26.9,59.859v3.2"/>
  <path id="Shape_143_copy_3" data-name="Shape 143 copy 3" class="cls-3" d="M31.221,59.859v3.2"/>
  <path id="Shape_143_copy_4" data-name="Shape 143 copy 4" class="cls-3" d="M40.935,57.725v3.2"/>
  <path id="Shape_143_copy_5" data-name="Shape 143 copy 5" class="cls-3" d="M44.173,56.657v3.2"/>
  <path class="cls-3" d="M47.411,52.389s2.546-4.549,5.4-3.2,2.59,5.507,1.079,6.4a38.484,38.484,0,0,1-5.4,2.134Z"/>
  <path id="Shape_144_copy" data-name="Shape 144 copy" class="cls-3" d="M8.555,52.531S6.021,48.1,3.183,49.415,0.6,54.775,2.108,55.647a38.826,38.826,0,0,0,5.373,2.078Z"/>
  <path class="cls-3" d="M27.983,21.442s-4.15,9.606-5.4,13.873-5.4,11.738-5.4,11.738"/>
  <path id="Shape_145_copy" data-name="Shape 145 copy" class="cls-3" d="M23.666,21.442S18.437,33.183,17.19,37.449s-5.4,11.738-5.4,11.738"/>
  <path id="Shape_145_copy_2" data-name="Shape 145 copy 2" class="cls-3" d="M29.062,20.8s4.182,9.459,5.439,13.659,5.439,11.558,5.439,11.558"/>
  <path id="Shape_145_copy_2-2" data-name="Shape 145 copy 2" class="cls-3" d="M33.414,20.8s5.27,11.56,6.527,15.76S45.38,48.121,45.38,48.121"/>
  <path class="cls-5" d="M26.9,9.7l8.635-9.6,8.634,2.134V49.188l-5.4-3.2V6.5l-7.555,6.4"/>
  <path id="Shape_149_copy" data-name="Shape 149 copy" class="cls-5" d="M25.824,9.7l-5.4-8.537L12.873,2.234V48.121l3.238-1.067V5.435l8.635,6.4"/>
  <path class="cls-3" d="M16.11,21.442H39.856v-3.2H16.11v3.2Z"/>
  <path class="cls-5" d="M23.666,18.241V9.7h7.555v8.537"/>
  <path class="cls-5" d="M23.666,13.973h6.476"/>
  <path class="cls-5" d="M39.856,19.308h3.238"/>
  <path class="cls-5" d="M39.856,13.973l3.238,3.2"/>
  <path id="Shape_151_copy" data-name="Shape 151 copy" class="cls-5" d="M39.856,9.7l3.238,3.2"/>
  <path id="Shape_150_copy" data-name="Shape 150 copy" class="cls-5" d="M16.355,20.375H12.873"/>
  <path id="Shape_151_copy_2" data-name="Shape 151 copy 2" class="cls-5" d="M16.355,15.04l-3.483,3.2"/>
  <path id="Shape_151_copy_2-2" data-name="Shape 151 copy 2" class="cls-5" d="M16.355,10.771l-3.483,3.2"/>
  <path class="cls-5" d="M12.873,33.181H16.11"/>
  <path id="Shape_152_copy" data-name="Shape 152 copy" class="cls-5" d="M12.873,36.382H16.11"/>
  <path id="Shape_152_copy_2" data-name="Shape 152 copy 2" class="cls-5" d="M39.856,33.181h3.238"/>
  <path id="Shape_152_copy_2-2" data-name="Shape 152 copy 2" class="cls-5" d="M39.856,36.382h3.238"/>
  <path class="cls-3" d="M19.348,65.195s5.477,6.463,7.555,6.4S37.7,64.127,37.7,64.127l8.635-3.2S29.264,75.8,26.9,75.866,8.555,58.792,8.555,58.792Z"/>
  <path class="cls-3" d="M10.624,60.926s-2.817,13.623.989,15.67,9.894-5.876,9.894-5.876"/>
  <path id="Shape_154_copy" data-name="Shape 154 copy" class="cls-3" d="M46.332,60.926S49.4,75.457,45.252,77.641s-10.793-6.268-10.793-6.268"/>
</svg>
