<svg xmlns="http://www.w3.org/2000/svg" width="84" height="70.531" viewBox="0 0 84 70.531">
  <defs>
    <style>
      .cls-1, .cls-4 {
        fill: #eff2f4;
      }

      .cls-1, .cls-2, .cls-4 {
        stroke: #282832;
        stroke-width: 1px;
      }

      .cls-1, .cls-2, .cls-3, .cls-4 {
        fill-rule: evenodd;
      }

      .cls-2, .cls-3 {
        fill: #ea6924;
      }

      .cls-4 {
        stroke-dasharray: 4 2;
      }
    </style>
  </defs>
  <path class="cls-1" d="M42,2H31.8s-0.755-.194-4.08,1.969-8.673,5.48-9.179,6.892-0.918,1.837,0,2.954,2.635,2.822,5.1,1.969,9.179-5.908,9.179-5.908H42" transform="translate(0 -0.469)"/>
  <path class="cls-1" d="M30,6l3,5" transform="translate(0 -0.469)"/>
  <path id="Shape_79_copy" data-name="Shape 79 copy" class="cls-1" d="M42,0.986H52.191s0.755-.195,4.076,1.973,8.666,5.491,9.172,6.906,0.917,3.841,0,4.959-2.633,2.827-5.1,1.973-9.172-5.919-9.172-5.919H42" transform="translate(0 -0.469)"/>
  <path id="Shape_80_copy" data-name="Shape 80 copy" class="cls-1" d="M54.229,5.932l-3.057,4.933" transform="translate(0 -0.469)"/>
  <path class="cls-1" d="M9,64L5,41s-1.008-4.95,0-7S21,16,21,16l-3-3L3,29a7.989,7.989,0,0,0-3,6c0.061,3.708,5,30,5,30s0.654,3.274,3,3C11.145,67.633,9,64,9,64Z" transform="translate(0 -0.469)"/>
  <path id="Shape_77_copy" data-name="Shape 77 copy" class="cls-1" d="M75,63.971l4-22.987s1.008-4.947,0-7S63,16,63,16l3-3L81,28.991a7.984,7.984,0,0,1,3,6c-0.061,3.706-5,29.983-5,29.983s-0.654,3.272-3,3C72.855,67.6,75,63.971,75,63.971Z" transform="translate(0 -0.469)"/>
  <path class="cls-1" d="M7,52l4-1" transform="translate(0 -0.469)"/>
  <path class="cls-2" d="M36,1l1,10h9L47,1H36Z" transform="translate(0 -0.469)"/>
  <path id="Shape_78_copy" data-name="Shape 78 copy" class="cls-1" d="M8,60l4-1" transform="translate(0 -0.469)"/>
  <path id="Shape_78_copy_2" data-name="Shape 78 copy 2" class="cls-1" d="M77,52L73.19,51" transform="translate(0 -0.469)"/>
  <path id="Shape_78_copy_2-2" data-name="Shape 78 copy 2" class="cls-1" d="M76.048,60.028l-3.809-1" transform="translate(0 -0.469)"/>
  <path class="cls-1" d="M33.868,50.805L31.8,42.586a8.154,8.154,0,0,0-5.174-4.11c-3.873-1.1-7.565-2.072-10.348-1.027S8.523,41.3,9.032,45.668s3.1,17.465,3.1,17.465,2.932,6.18,6.209,7.192,7.786,0.781,9.313,0a13.925,13.925,0,0,0,5.174-5.137c1.547-2.595,1.618-2.316,2.07-4.109S33.868,50.805,33.868,50.805Z" transform="translate(0 -0.469)"/>
  <path class="cls-3" d="M16,38l7,32h4l1-1L21,38H16Z" transform="translate(0 -0.469)"/>
  <path class="cls-1" d="M21,38l7,32" transform="translate(0 -0.469)"/>
  <path class="cls-4" d="M30,44l3,17" transform="translate(0 -0.469)"/>
  <path id="Shape_76_copy" data-name="Shape 76 copy" class="cls-4" d="M12,44l4,21" transform="translate(0 -0.469)"/>
  <path id="Shape_75_copy" data-name="Shape 75 copy" class="cls-1" d="M17,38l7,32" transform="translate(0 -0.469)"/>
  <path id="Shape_74_copy" data-name="Shape 74 copy" class="cls-1" d="M49.132,50.805l2.07-8.219a8.154,8.154,0,0,1,5.174-4.11c3.873-1.1,7.566-2.072,10.348-1.027s7.753,3.848,7.244,8.219-3.1,17.465-3.1,17.465-2.932,6.18-6.209,7.192-7.786.781-9.313,0a13.924,13.924,0,0,1-5.174-5.137c-1.547-2.595-1.618-2.316-2.07-4.109S49.132,50.805,49.132,50.805Z" transform="translate(0 -0.469)"/>
  <path id="Shape_81_copy" data-name="Shape 81 copy" class="cls-3" d="M66,38L59,70H55l-1-1,7-31h5Z" transform="translate(0 -0.469)"/>
  <path id="Shape_75_copy_2" data-name="Shape 75 copy 2" class="cls-1" d="M62,38L55,70" transform="translate(0 -0.469)"/>
  <path id="Shape_76_copy_2" data-name="Shape 76 copy 2" class="cls-4" d="M53,44L50,61" transform="translate(0 -0.469)"/>
  <path id="Shape_76_copy_2-2" data-name="Shape 76 copy 2" class="cls-4" d="M71,44L67,65" transform="translate(0 -0.469)"/>
  <path id="Shape_75_copy_2-2" data-name="Shape 75 copy 2" class="cls-1" d="M66,38L59,70" transform="translate(0 -0.469)"/>
</svg>
