<svg xmlns="http://www.w3.org/2000/svg" width="63" height="81" viewBox="0 0 63 81">
  <defs>
    <style>
      .cls-1 {
        fill: #eff2f4;
      }

      .cls-1, .cls-2, .cls-3, .cls-4 {
        fill-rule: evenodd;
      }

      .cls-2 {
        fill: #ea6924;
      }

      .cls-3, .cls-4 {
        fill: none;
        stroke: #282832;
        stroke-width: 1px;
      }

      .cls-4 {
        stroke-dasharray: 4 2;
      }
    </style>
  </defs>
  <g>
    <path class="cls-1" d="M2,18S3.519,37.271,4,41,6,52,6,52L3,58V70H41l1-9,3-6-8-3-6-6,6-28H2Z"/>
    <path class="cls-1" d="M2,13v5l35-1,1-4H2Z"/>
    <path class="cls-1" d="M3,76L1,80l21-1,1-3H3Z"/>
    <path class="cls-1" d="M25,76l7,3,30,1-3-4"/>
    <path class="cls-2" d="M46,56a13.163,13.163,0,0,0-4,7,46.307,46.307,0,0,0-1,7H59s0.934-7.381-4-10A68.115,68.115,0,0,0,46,56Z"/>
    <path class="cls-2" d="M36,20s-5-2.36-8,2,0,19,0,19l4,4s-0.164-9.925,1-14S36,20,36,20Z"/>
  </g>
  <path class="cls-3" d="M1,12S2.088,34.551,3,41,5,54,5,54a11.56,11.56,0,0,0-3,7C1.852,65.106,2,71,2,71H60s1.589-5.961-4-11-12.088-4.252-16-7-8.36-3.556-8-11,7-30,7-30H1Z"/>
  <path class="cls-3" d="M2,17H36"/>
  <path class="cls-3" d="M3,71v4H59V71"/>
  <path class="cls-3" d="M3,76L2,79H22l1-3s6.3,2.943,12,3c7.563,0.076,26,0,26,0l-2-4"/>
  <path class="cls-3" d="M7,12S7.443-.024,20,0,33,12,33,12"/>
  <path class="cls-3" d="M11,12s0.931-8.126,9-8c9.24,0.144,9,8,9,8"/>
  <path class="cls-3" d="M47,56s-4.386,3.3-5,8,0,6,0,6"/>
  <path class="cls-4" d="M35,51s-5.905,4.462-8,10a29.458,29.458,0,0,0-2,10"/>
  <path id="Shape_29_copy" data-name="Shape 29 copy" class="cls-4" d="M33,48s-8.9,7.462-11,13a29.456,29.456,0,0,0-2,10"/>
  <path class="cls-3" d="M36,20s-7.259-1.847-8,4,0,17,0,17l3,3"/>
  <path class="cls-3" d="M8,20v7"/>
  <path class="cls-3" d="M8,31a40.1,40.1,0,0,0,0,8c0.443,4.385,1,10,1,10"/>
</svg>
