<svg xmlns="http://www.w3.org/2000/svg" width="88" height="78" viewBox="0 0 88 78">
  <defs>
    <style>
      .cls-1, .cls-3 {
        fill: #eff2f4;
      }

      .cls-1, .cls-2, .cls-3 {
        stroke: #282832;
        stroke-width: 1px;
        fill-rule: evenodd;
      }

      .cls-2 {
        fill: #ea6924;
      }

      .cls-3 {
        stroke-dasharray: 4 2;
      }
    </style>
  </defs>
  <path class="cls-1" d="M27,41l1.206,29.333H87.321s2.552-10.287-2.413-12.222S66.625,55.032,60.78,50.778,57.161,41,57.161,41H27Z"/>
  <path class="cls-2" d="M28.206,69.111V74H87.321V69.111H28.206Z"/>
  <path class="cls-3" d="M31,45H55"/>
  <path id="Shape_104_copy" data-name="Shape 104 copy" class="cls-2" d="M47,50l-5,9.412,4,0.941V66l4-10.353H47V50Z"/>
  <path class="cls-1" d="M35,76s-4.914-31.272-5.207-35.426,2.054-5.652,3.024-13.291S34.781,9,34.781,9s0.7-2.224-1.19-2.754c-3.063-.856-3.3,2.515-3.3,2.515l-0.917,8.022s-0.321,1.991-1.45,1.717c-1.278-.31-0.794-1.836-0.794-1.836L28.308,4.174A2.226,2.226,0,0,0,26.194,1.82c-1.713-.258-2.374,2.116-2.374,2.116L22.773,14.194s-0.378,1.72-1.451,1.716-0.794-1.836-.794-1.836L21.179,2.9S20.933,0.324,19.065.544c-2.109.248-1.977,3.034-1.977,3.034L16.041,13.836s-0.7,1.824-1.451,1.717C13.7,15.424,13.8,13.716,13.8,13.716L13.523,2.94s-1.1-1.756-2.641-1.037S9.828,4.538,9.828,4.538L9.712,22.019s-0.1,1.175-.527,1.317a1.045,1.045,0,0,1-1.321-.519L4.69,15.475s-1.17-1.633-2.641-1.037S0.071,17.471.071,17.471,4.737,31.817,5.5,32.557s3.711,2.158,5.549,5.227S10.156,76.3,10.156,76.3A83.131,83.131,0,0,0,23,77C29,76.734,35,76,35,76Z"/>
  <path class="cls-3" d="M11,73s7.768,0.392,13,0,10-1,10-1"/>
  <path class="cls-2" d="M11,70s7.46,0.091,11,0,11-1,11-1V65a99.143,99.143,0,0,1-11,1c-5.119.1-11,0-11,0v4Z"/>
  <path class="cls-2" d="M22.25,40L16,51.765l5,1.176V60l5-12.941H22.25V40Z"/>
</svg>
