<svg xmlns="http://www.w3.org/2000/svg" width="60" height="80" viewBox="0 0 60 80">
  <defs>
    <style>
      .cls-1, .cls-2, .cls-4, .cls-7 {
        fill: #eff2f4;
      }

      .cls-1, .cls-10, .cls-2, .cls-3, .cls-4, .cls-5, .cls-6, .cls-7, .cls-8, .cls-9 {
        stroke: #282832;
        stroke-width: 1px;
      }

      .cls-1, .cls-2, .cls-3, .cls-5, .cls-6, .cls-7, .cls-8 {
        fill-rule: evenodd;
      }

      .cls-2, .cls-5 {
        stroke-dasharray: 4 2;
      }

      .cls-3, .cls-9 {
        fill: #ea6924;
      }

      .cls-10, .cls-5, .cls-6 {
        fill: none;
      }

      .cls-7 {
        fill-opacity: 0;
      }

      .cls-8 {
        fill: #fff;
      }
    </style>
  </defs>
  <path id="Ellipse_3_copy_3" data-name="Ellipse 3 copy 3" class="cls-1" d="M24,50c7.732,0,14,4.149,14,10.5V66H10V60.5C10,54.149,16.268,50,24,50Z"/>
  <path id="Ellipse_3_copy_4" data-name="Ellipse 3 copy 4" class="cls-2" d="M24,53c7.732,0,14,4.149,14,10.5V69H10V63.5C10,57.149,16.268,53,24,53Z"/>
  <path class="cls-3" d="M8.115,9S5.322,4.444,6.153,3.114,9.08-.649,11.058.183C12.448,0.768,14,5.069,14,5.069"/>
  <path id="Shape_84_copy_2" data-name="Shape 84 copy 2" class="cls-3" d="M12.115,74.422s-4.164,1.234-5.033.3-2.339-3.089-1.27-4.467c0.752-.969,4.454-1.282,4.454-1.282"/>
  <rect id="Rounded_Rectangle_1" data-name="Rounded Rectangle 1" class="cls-4" x="43" y="52" width="17" height="26" rx="5" ry="5"/>
  <path class="cls-5" d="M58,57V75"/>
  <path id="Shape_89_copy" data-name="Shape 89 copy" class="cls-5" d="M46,57V74"/>
  <path class="cls-6" d="M38,61h5"/>
  <path id="Shape_90_copy" data-name="Shape 90 copy" class="cls-6" d="M38,68h5"/>
  <path id="Shape_83_copy" data-name="Shape 83 copy" class="cls-7" d="M24.062,3s19,1.024,22,17.318C50.536,44.7,37.06,58,37.06,58"/>
  <path id="Shape_84_copy" data-name="Shape 84 copy" class="cls-3" d="M40.179,9.415s2.529-3.325,1.777-4.568-2.65-3.519-4.442-2.741c-1.259.547-2.665,4.568-2.665,4.568"/>
  <path class="cls-7" d="M24,4S4.993,5,2,21c-4.477,23.928,9,36,9,36"/>
  <path id="Shape_85_copy" data-name="Shape 85 copy" class="cls-3" d="M20.295,25.5c-1.6-1.43-4.706-4.1-7.795-4.5s-8.539,5.286-9.354,9S4.4,51.254,9.382,51,21.026,35.019,21.854,31.5C22.543,28.57,21.9,26.93,20.295,25.5Z"/>
  <path class="cls-8" d="M17,29s-3.019-2.733-5-3-5.477,3.524-6,6,0.8,14.169,4,14,7.469-10.654,8-13A5.822,5.822,0,0,0,17,29Z"/>
  <path id="Shape_85_copy_2" data-name="Shape 85 copy 2" class="cls-3" d="M26.815,25.526c1.588-1.428,4.668-4.1,7.731-4.5s8.469,5.28,9.277,8.991S42.584,51.253,37.639,51,26.09,35.036,25.269,31.52C24.585,28.593,25.227,26.955,26.815,25.526Z"/>
  <path id="Shape_85_copy_2-2" data-name="Shape 85 copy 2" class="cls-8" d="M30.083,29.023s2.994-2.73,4.959-3,5.433,3.52,5.951,5.994-0.8,14.155-3.967,13.986-7.408-10.643-7.935-12.986A5.846,5.846,0,0,1,30.083,29.023Z"/>
  <ellipse class="cls-9" cx="24" cy="68.5" rx="14" ry="11.5"/>
  <ellipse id="Ellipse_3_copy" data-name="Ellipse 3 copy" class="cls-4" cx="24" cy="68.5" rx="11" ry="8.5"/>
  <ellipse id="Ellipse_3_copy_2" data-name="Ellipse 3 copy 2" class="cls-10" cx="24.5" cy="68.5" rx="3.5" ry="2.5"/>
  <path class="cls-6" d="M27,67l3-5"/>
  <path class="cls-6" d="M28,68h7"/>
  <path id="Shape_88_copy" data-name="Shape 88 copy" class="cls-6" d="M14,68h7"/>
  <path id="Shape_86_copy" data-name="Shape 86 copy" class="cls-6" d="M21,68.455L17.878,63"/>
  <path id="Shape_86_copy_2" data-name="Shape 86 copy 2" class="cls-6" d="M27.146,70.362L30.154,75"/>
  <path class="cls-6" d="M25,60v7"/>
  <path id="Shape_87_copy" data-name="Shape 87 copy" class="cls-6" d="M25,70v7"/>
  <path id="Shape_86_copy_2-2" data-name="Shape 86 copy 2" class="cls-6" d="M22.133,70.013L19,75.072"/>
</svg>
