<svg xmlns="http://www.w3.org/2000/svg" width="87" height="75" viewBox="0 0 87 75">
  <defs>
    <style>
      .cls-1 {
        fill: #ea6924;
      }

      .cls-1, .cls-2, .cls-3, .cls-4, .cls-5 {
        fill-rule: evenodd;
      }

      .cls-2 {
        fill: #eff2f4;
      }

      .cls-3, .cls-4 {
        fill: none;
        stroke: #282832;
        stroke-width: 1px;
      }

      .cls-4 {
        stroke-dasharray: 4 2;
      }

      .cls-5 {
        fill: #fff;
      }
    </style>
  </defs>
  <path class="cls-1" d="M21,53l2,15s10.383-.926,14-2a61.1,61.1,0,0,0,9-4L38,47s-6.912,3.116-9,4A61.938,61.938,0,0,1,21,53Z"/>
  <path class="cls-2" d="M21,53L18,42,11,32,1,14l1-1H4l4,7,2,2h2V21L9,14,5,8,7,6,9,8l4,7,3,3,1-3L14,9,12,6,11,3l2-1,3,4,4,8,2,1,1-3L18,2l2-2,2,2,5,11,2,6h2l1-9,1-2,1,1,2,1V26l-3,6v4l5,8v3Z"/>
  <g>
    <path class="cls-3" d="M24,75s-4.629-28.071-6-32-4.1-4.372-8-11S1,16,1,16s-1.519-1.762,0-3c2.456-2,4,1,4,1l4,7s1.078,1.7,2,1c1.043-.792,0-2,0-2L5,9A2.234,2.234,0,0,1,6,6c1.461-.916,3,1,3,1l5,9s1.024,1.429,2,1,0-2,0-2L11,5s-0.791-2.46,1-3c2.022-.609,3,2,3,2l5,9s1.361,1.395,2,1c0.765-.473,0-2,0-2L18,2s0.31-2.048,2-2,2,2,2,2l7,16s0.556,1.038,1,1a1.044,1.044,0,0,0,1-1V10s0.423-1.963,2-2,3,2,3,2,1.4,15.02,1,16-2.534,3.454-3,7S50,68,50,68s-7.212,3.842-13,5S24,75,24,75Z"/>
    <path class="cls-4" d="M24,71s9.1-.653,15-3,8-3,8-3h1"/>
    <path class="cls-4" d="M20,49a64.052,64.052,0,0,0,8-2c6.2-1.789,9-4,9-4"/>
    <path class="cls-3" d="M19.721,52.176s10.623-2.082,14.392-3.725,3.167-1.723,3.167-1.723"/>
    <path class="cls-3" d="M23,68s9.764-1.245,13-2,10-4,10-4"/>
    <path class="cls-3" d="M37,51l4,10"/>
    <path id="Shape_47_copy" data-name="Shape 47 copy" class="cls-3" d="M25.165,54.791l1.73,10.63"/>
  </g>
  <path class="cls-1" d="M66.182,52L64.17,67s-10.449-.926-14.088-2a61.692,61.692,0,0,1-9.057-4l8.05-15s6.955,3.116,9.057,4A62.607,62.607,0,0,0,66.182,52Z"/>
  <path class="cls-2" d="M66.182,52L69.2,42l7.044-10L86.308,14,85.3,13H83.289l-4.025,7-2.013,2H75.239V21l3.019-7,4.025-6L80.27,6,78.258,8l-4.025,7-3.019,3-1.006-3,3.019-6,2.013-3,1.006-3L74.233,2,71.214,6l-4.025,8-2.013,1L64.17,12,69.2,2,67.189,0,65.176,2,60.145,13l-2.012,6H56.119l-1.006-9L54.107,8,53.1,9l-2.013,1V26l3.019,6v4l-5.031,8v3Z"/>
  <path class="cls-5" d="M41,61l-3,7s8.666,2.838,13,4a103.026,103.026,0,0,0,11,2l2-6L51,66Z"/>
  <g>
    <path class="cls-3" d="M63.164,75S67.822,46.929,69.2,43s4.128-4.372,8.05-11,9.057-16,9.057-16,1.528-1.762,0-3c-2.471-2-4.025,1-4.025,1l-4.025,7s-1.085,1.7-2.013,1c-1.05-.792,0-2,0-2L82.283,9a2.226,2.226,0,0,0-1.006-3c-1.47-.916-3.019,1-3.019,1l-5.031,9s-1.03,1.429-2.013,1,0-2,0-2L76.245,5s0.8-2.46-1.006-3C73.2,1.391,72.22,4,72.22,4l-5.032,9s-1.369,1.395-2.013,1c-0.77-.473,0-2,0-2L69.2,2S68.889-.048,67.189,0s-2.013,2-2.013,2L58.132,18s-0.56,1.038-1.006,1a1.045,1.045,0,0,1-1.006-1V10s-0.425-1.963-2.013-2-3.019,2-3.019,2-1.41,15.02-1.006,16,2.55,3.454,3.019,7S37,68,37,68s7.258,3.842,13.082,5S63.164,75,63.164,75Z"/>
    <path class="cls-4" d="M63.164,71s-9.156-.653-15.094-3-8.05-3-8.05-3H39.013"/>
    <path class="cls-4" d="M67.189,49a64.793,64.793,0,0,1-8.05-2c-6.239-1.789-9.057-4-9.057-4"/>
    <path class="cls-3" d="M67.469,52.176s-10.69-2.082-14.482-3.725S49.8,46.728,49.8,46.728"/>
    <path class="cls-3" d="M64.17,68s-9.825-1.245-13.082-2-10.063-4-10.063-4"/>
    <path class="cls-3" d="M50.082,51L46.057,61"/>
    <path id="Shape_47_copy-2" data-name="Shape 47 copy" class="cls-3" d="M61.992,54.791l-1.741,10.63"/>
  </g>
</svg>
