<svg xmlns="http://www.w3.org/2000/svg" width="78" height="81" viewBox="0 0 78 81">
  <defs>
    <style>
      .cls-1 {
        fill: #ea6924;
      }

      .cls-1, .cls-3, .cls-4, .cls-5, .cls-6 {
        stroke: #282832;
        stroke-width: 1px;
      }

      .cls-1, .cls-3, .cls-4 {
        stroke-dasharray: 4 2;
      }

      .cls-1, .cls-2, .cls-3, .cls-5 {
        fill-rule: evenodd;
      }

      .cls-2 {
        fill: #ebeff2;
      }

      .cls-3, .cls-4, .cls-5, .cls-6 {
        fill: none;
      }
    </style>
  </defs>
  <path class="cls-1" d="M3,0L1,5l15,8V7Z"/>
  <path class="cls-2" d="M17,17V52l55,1a13.688,13.688,0,0,0,4-4c2.081-2.95,1-24,1-24Z"/>
  <path class="cls-3" d="M19,21l56,8"/>
  <circle class="cls-4" cx="29" cy="75" r="3"/>
  <circle id="Ellipse_3_copy" data-name="Ellipse 3 copy" class="cls-4" cx="61" cy="75" r="3"/>
  <path class="cls-5" d="M3,0L17,7V61s-0.239,3.822,1,5c1.339,1.273,5,1,5,1H71"/>
  <path class="cls-5" d="M17,16l61,9V46a7.516,7.516,0,0,1-2,5c-1.685,1.542-5,2-5,2H17"/>
  <circle class="cls-6" cx="29" cy="75" r="6"/>
  <path class="cls-5" d="M3,1L2,5l14,7"/>
  <circle id="Ellipse_2_copy" data-name="Ellipse 2 copy" class="cls-6" cx="61" cy="75" r="6"/>
  <path class="cls-5" d="M65,49s2.219,0.734,6-1,3-6,3-6"/>
</svg>
