<svg xmlns="http://www.w3.org/2000/svg" width="29" height="29" viewBox="0 0 29 29">
  <defs>
    <style>
      .cls-1, .cls-2 {
        fill: #ea6924;
      }

      .cls-1, .cls-3, .cls-4, .cls-5 {
        stroke: #282832;
        stroke-width: 1px;
      }

      .cls-1, .cls-2, .cls-3, .cls-5 {
        fill-rule: evenodd;
      }

      .cls-3, .cls-4 {
        fill: #ebeff2;
      }

      .cls-5 {
        fill: none;
      }
    </style>
  </defs>
  <path class="cls-1" d="M9,2"/>
  <path class="cls-2" d="M12,12l1,4h3l1-4H12Z"/>
  <path class="cls-3" d="M8,1l2,11h9L21,1,19,0H10Z"/>
  <circle class="cls-4" cx="26.5" cy="3.5" r="2.5"/>
  <circle id="Ellipse_2_copy" data-name="Ellipse 2 copy" class="cls-4" cx="2.5" cy="3.5" r="2.5"/>
  <path class="cls-5" d="M20,2h5"/>
  <path id="Shape_148_copy" data-name="Shape 148 copy" class="cls-5" d="M19,4h5"/>
  <path id="Shape_148_copy_2" data-name="Shape 148 copy 2" class="cls-5" d="M8,3H3"/>
  <path id="Shape_148_copy_2-2" data-name="Shape 148 copy 2" class="cls-5" d="M9,5H4"/>
  <path class="cls-5" d="M12,6h5"/>
  <path id="Shape_149_copy" data-name="Shape 149 copy" class="cls-5" d="M11,4h7"/>
  <path class="cls-5" d="M12,12l1,4h3l1-4"/>
  <path class="cls-5" d="M13,17v3h3V17"/>
  <path class="cls-5" d="M15,21v6"/>
  <path class="cls-5" d="M1,28s1.878-1.853,3.571-1.59S6.9,28.17,8.143,28A7.385,7.385,0,0,0,11,26.41"/>
  <path id="Shape_153_copy" data-name="Shape 153 copy" class="cls-5" d="M1,24.615s1.878-1.853,3.571-1.59,2.331,1.761,3.571,1.59A7.383,7.383,0,0,0,11,23.025"/>
  <path id="Shape_153_copy_2" data-name="Shape 153 copy 2" class="cls-5" d="M28,29s-1.938-1.853-3.687-1.59S21.907,29.17,20.627,29a7.683,7.683,0,0,1-2.949-1.59"/>
  <path id="Shape_153_copy_2-2" data-name="Shape 153 copy 2" class="cls-5" d="M28,25.615s-1.938-1.853-3.687-1.59-2.407,1.761-3.687,1.59a7.683,7.683,0,0,1-2.949-1.59"/>
</svg>
