<svg xmlns="http://www.w3.org/2000/svg" width="63" height="81" viewBox="0 0 63 81"><defs><style>.cls-1{fill:#eff2f4}.cls-1,.cls-2,.cls-3,.cls-4{fill-rule:evenodd}.cls-2{fill:#ea6924}.cls-3,.cls-4{fill:none;stroke:#282832;stroke-width:1px}.cls-4{stroke-dasharray:4 2}</style></defs><path class="cls-1" d="M2 18s1.519 19.271 2 23 2 11 2 11l-3 6v12h38l1-9 3-6-8-3-6-6 6-28H2zM2 13v5l35-1 1-4H2zM3 76l-2 4 21-1 1-3H3zM25 76l7 3 30 1-3-4"/><path class="cls-2" d="M46 56a13.163 13.163 0 0 0-4 7 46.307 46.307 0 0 0-1 7h18s.934-7.381-4-10a68.115 68.115 0 0 0-9-4zM36 20s-5-2.36-8 2 0 19 0 19l4 4s-.164-9.925 1-14 3-11 3-11z"/><path class="cls-3" d="M1 12s1.088 22.551 2 29 2 13 2 13a11.56 11.56 0 0 0-3 7c-.148 4.106 0 10 0 10h58s1.589-5.961-4-11-12.088-4.252-16-7-8.36-3.556-8-11 7-30 7-30H1zM2 17h34M3 71v4h56v-4M3 76l-1 3h20l1-3s6.3 2.943 12 3c7.563.076 26 0 26 0l-2-4M7 12S7.443-.024 20 0s13 12 13 12"/><path class="cls-3" d="M11 12s.931-8.126 9-8c9.24.144 9 8 9 8M47 56s-4.386 3.3-5 8 0 6 0 6"/><path class="cls-4" d="M35 51s-5.905 4.462-8 10a29.458 29.458 0 0 0-2 10"/><path id="Shape_29_copy" data-name="Shape 29 copy" class="cls-4" d="M33 48s-8.9 7.462-11 13a29.456 29.456 0 0 0-2 10"/><path class="cls-3" d="M36 20s-7.259-1.847-8 4 0 17 0 17l3 3M8 20v7M8 31a40.1 40.1 0 0 0 0 8c.443 4.385 1 10 1 10"/></svg>