<svg xmlns="http://www.w3.org/2000/svg" width="55" height="78" viewBox="0 0 55 78"><defs><style>.cls-1{fill:#eff2f4}.cls-1,.cls-3,.cls-4,.cls-5{fill-rule:evenodd}.cls-2,.cls-3{fill:none}.cls-2,.cls-3,.cls-4{stroke:#282832}.cls-2,.cls-3,.cls-4,.cls-5{stroke-width:1px}.cls-4,.cls-5{fill:#ea6924}.cls-5{stroke:#000}</style></defs><path class="cls-1" d="M10.714 52.389v4.269l18.349 3.2 9.714-2.134 6.476-2.134v-2.134l-5.4 2.134-10.791 2.135-8.635-1.067zM22.586 21.442l-5.4 12.806v10.671L26.9 21.442h-4.314z"/><path id="Shape_157_copy" data-name="Shape 157 copy" class="cls-1" d="M33.38 21.442l5.4 12.806v10.671l-9.718-23.477h4.318z"/><path class="cls-1" d="M9.635 52.389l3.238-3.2 7.555-3.2h14.031s8.26 1.845 8.635 2.134 3.238 3.2 3.238 3.2l-4.317 3.2h3.238l-14.032-5.335-9.714 1.067-8.635 4.268H9.635v-2.134z"/><ellipse class="cls-2" cx="27.984" cy="51.313" rx="18.359" ry="6.406"/><path id="Ellipse_7_copy" data-name="Ellipse 7 copy" class="cls-3" d="M43.544 56.464c1.767.984 2.788 2.148 2.788 3.394 0 3.536-8.215 6.4-18.348 6.4s-18.349-2.867-18.349-6.4c0-1.29 1.093-2.49 2.973-3.5 7.099-3.79 23.592-3.986 30.936.106zM28.523 40.651c10.432 0 18.888 4.061 18.888 9.071s-8.456 9.07-18.888 9.07-19.968-4.061-19.968-9.071 9.536-9.07 19.968-9.07z"/><path class="cls-3" d="M12.873 53.456s5-4.424 16.19-4.268 12.952 5.335 12.952 5.335M10.714 52.389v7.47"/><path id="Shape_140_copy" data-name="Shape 140 copy" class="cls-3" d="M46.332 52.389v7.47"/><path class="cls-4" d="M7.476 52.389s3.8 5.983 21.587 6.4c15.058.356 19.428-7.47 19.428-7.47v6.4s-4.2 6.416-19.428 6.4-21.587-6.4-21.587-6.4v-5.33z"/><path class="cls-3" d="M15.031 57.725v3.2"/><path id="Shape_143_copy" data-name="Shape 143 copy" class="cls-3" d="M18.269 58.792v3.2"/><path id="Shape_143_copy_2" data-name="Shape 143 copy 2" class="cls-3" d="M26.9 59.859v3.2"/><path id="Shape_143_copy_3" data-name="Shape 143 copy 3" class="cls-3" d="M31.221 59.859v3.2"/><path id="Shape_143_copy_4" data-name="Shape 143 copy 4" class="cls-3" d="M40.935 57.725v3.2"/><path id="Shape_143_copy_5" data-name="Shape 143 copy 5" class="cls-3" d="M44.173 56.657v3.2"/><path class="cls-3" d="M47.411 52.389s2.546-4.549 5.4-3.2 2.59 5.507 1.079 6.4a38.484 38.484 0 0 1-5.4 2.134z"/><path id="Shape_144_copy" data-name="Shape 144 copy" class="cls-3" d="M8.555 52.531S6.021 48.1 3.183 49.415.6 54.775 2.108 55.647a38.826 38.826 0 0 0 5.373 2.078z"/><path class="cls-3" d="M27.983 21.442s-4.15 9.606-5.4 13.873-5.4 11.738-5.4 11.738"/><path id="Shape_145_copy" data-name="Shape 145 copy" class="cls-3" d="M23.666 21.442s-5.229 11.741-6.476 16.007-5.4 11.738-5.4 11.738"/><path id="Shape_145_copy_2" data-name="Shape 145 copy 2" class="cls-3" d="M29.062 20.8s4.182 9.459 5.439 13.659 5.439 11.558 5.439 11.558"/><path id="Shape_145_copy_2-2" data-name="Shape 145 copy 2" class="cls-3" d="M33.414 20.8s5.27 11.56 6.527 15.76 5.439 11.561 5.439 11.561"/><path class="cls-5" d="M26.9 9.7L35.535.1l8.634 2.134v46.954l-5.4-3.2V6.5l-7.555 6.4"/><path id="Shape_149_copy" data-name="Shape 149 copy" class="cls-5" d="M25.824 9.7l-5.4-8.537-7.551 1.071v45.887l3.238-1.067V5.435l8.635 6.4"/><path class="cls-3" d="M16.11 21.442h23.746v-3.2H16.11v3.2z"/><path class="cls-5" d="M23.666 18.241V9.7h7.555v8.537M23.666 13.973h6.476M39.856 19.308h3.238M39.856 13.973l3.238 3.2"/><path id="Shape_151_copy" data-name="Shape 151 copy" class="cls-5" d="M39.856 9.7l3.238 3.2"/><path id="Shape_150_copy" data-name="Shape 150 copy" class="cls-5" d="M16.355 20.375h-3.482"/><path id="Shape_151_copy_2" data-name="Shape 151 copy 2" class="cls-5" d="M16.355 15.04l-3.483 3.2"/><path id="Shape_151_copy_2-2" data-name="Shape 151 copy 2" class="cls-5" d="M16.355 10.771l-3.483 3.2"/><path class="cls-5" d="M12.873 33.181h3.237"/><path id="Shape_152_copy" data-name="Shape 152 copy" class="cls-5" d="M12.873 36.382h3.237"/><path id="Shape_152_copy_2" data-name="Shape 152 copy 2" class="cls-5" d="M39.856 33.181h3.238"/><path id="Shape_152_copy_2-2" data-name="Shape 152 copy 2" class="cls-5" d="M39.856 36.382h3.238"/><path class="cls-3" d="M19.348 65.195s5.477 6.463 7.555 6.4S37.7 64.127 37.7 64.127l8.635-3.2S29.264 75.8 26.9 75.866 8.555 58.792 8.555 58.792z"/><path class="cls-3" d="M10.624 60.926s-2.817 13.623.989 15.67 9.894-5.876 9.894-5.876"/><path id="Shape_154_copy" data-name="Shape 154 copy" class="cls-3" d="M46.332 60.926s3.068 14.531-1.08 16.715-10.793-6.268-10.793-6.268"/></svg>