<svg xmlns="http://www.w3.org/2000/svg" width="88" height="78" viewBox="0 0 88 78"><defs><style>.cls-1,.cls-3{fill:#eff2f4}.cls-1,.cls-2,.cls-3{stroke:#282832;stroke-width:1px;fill-rule:evenodd}.cls-2{fill:#ea6924}.cls-3{stroke-dasharray:4 2}</style></defs><path class="cls-1" d="M27 41l1.206 29.333h59.115s2.552-10.287-2.413-12.222-18.283-3.079-24.128-7.333S57.161 41 57.161 41H27z"/><path class="cls-2" d="M28.206 69.111V74h59.115v-4.889H28.206z"/><path class="cls-3" d="M31 45h24"/><path id="Shape_104_copy" data-name="Shape 104 copy" class="cls-2" d="M47 50l-5 9.412 4 .941V66l4-10.353h-3V50z"/><path class="cls-1" d="M35 76s-4.914-31.272-5.207-35.426 2.054-5.652 3.024-13.291S34.781 9 34.781 9s.7-2.224-1.19-2.754c-3.063-.856-3.3 2.515-3.3 2.515l-.917 8.022s-.321 1.991-1.45 1.717c-1.278-.31-.794-1.836-.794-1.836l1.178-12.49a2.226 2.226 0 0 0-2.114-2.354c-1.713-.258-2.374 2.116-2.374 2.116l-1.047 10.258s-.378 1.72-1.451 1.716-.794-1.836-.794-1.836L21.179 2.9S20.933.324 19.065.544c-2.109.248-1.977 3.034-1.977 3.034l-1.047 10.258s-.7 1.824-1.451 1.717c-.89-.129-.79-1.837-.79-1.837L13.523 2.94s-1.1-1.756-2.641-1.037-1.054 2.635-1.054 2.635l-.116 17.481s-.1 1.175-.527 1.317a1.045 1.045 0 0 1-1.321-.519L4.69 15.475s-1.17-1.633-2.641-1.037S.071 17.471.071 17.471 4.737 31.817 5.5 32.557s3.711 2.158 5.549 5.227-.893 38.516-.893 38.516A83.131 83.131 0 0 0 23 77c6-.266 12-1 12-1z"/><path class="cls-3" d="M11 73s7.768.392 13 0 10-1 10-1"/><path class="cls-2" d="M11 70s7.46.091 11 0 11-1 11-1v-4a99.143 99.143 0 0 1-11 1c-5.119.1-11 0-11 0v4zM22.25 40L16 51.765l5 1.176V60l5-12.941h-3.75V40z"/></svg>