<svg xmlns="http://www.w3.org/2000/svg" width="84" height="70.531" viewBox="0 0 84 70.531"><defs><style>.cls-1,.cls-4{fill:#eff2f4}.cls-1,.cls-2,.cls-4{stroke:#282832;stroke-width:1px}.cls-1,.cls-2,.cls-3,.cls-4{fill-rule:evenodd}.cls-2,.cls-3{fill:#ea6924}.cls-4{stroke-dasharray:4 2}</style></defs><path class="cls-1" d="M42 1.531H31.8s-.755-.194-4.08 1.969-8.673 5.48-9.179 6.892-.918 1.837 0 2.954 2.635 2.822 5.1 1.969 9.179-5.908 9.179-5.908H42M30 5.531l3 5"/><path id="Shape_79_copy" data-name="Shape 79 copy" class="cls-1" d="M42 .986h10.191s.755-.195 4.076 1.973 8.666 5.491 9.172 6.906.917 3.841 0 4.959-2.633 2.827-5.1 1.973-9.172-5.919-9.172-5.919H42" transform="translate(0 -.469)"/><path id="Shape_80_copy" data-name="Shape 80 copy" class="cls-1" d="M54.229 5.932l-3.057 4.933" transform="translate(0 -.469)"/><path class="cls-1" d="M9 63.531l-4-23s-1.008-4.95 0-7 16-18 16-18l-3-3-15 16a7.989 7.989 0 0 0-3 6c.061 3.708 5 30 5 30s.654 3.274 3 3c3.145-.367 1-4 1-4z"/><path id="Shape_77_copy" data-name="Shape 77 copy" class="cls-1" d="M75 63.971l4-22.987s1.008-4.947 0-7S63 16 63 16l3-3 15 15.991a7.984 7.984 0 0 1 3 6c-.061 3.706-5 29.983-5 29.983s-.654 3.272-3 3c-3.145-.374-1-4.003-1-4.003z" transform="translate(0 -.469)"/><path class="cls-1" d="M7 51.531l4-1"/><path class="cls-2" d="M36 .531l1 10h9l1-10H36z"/><path id="Shape_78_copy" data-name="Shape 78 copy" class="cls-1" d="M8 60l4-1" transform="translate(0 -.469)"/><path id="Shape_78_copy_2" data-name="Shape 78 copy 2" class="cls-1" d="M77 52l-3.81-1" transform="translate(0 -.469)"/><path id="Shape_78_copy_2-2" data-name="Shape 78 copy 2" class="cls-1" d="M76.048 60.028l-3.809-1" transform="translate(0 -.469)"/><path class="cls-1" d="M33.868 50.336L31.8 42.117a8.154 8.154 0 0 0-5.174-4.11c-3.873-1.1-7.565-2.072-10.348-1.027s-7.755 3.851-7.246 8.219 3.1 17.465 3.1 17.465 2.932 6.18 6.209 7.192 7.786.781 9.313 0a13.925 13.925 0 0 0 5.174-5.137c1.547-2.595 1.618-2.316 2.07-4.109s-1.03-10.274-1.03-10.274z"/><path class="cls-3" d="M16 37.531l7 32h4l1-1-7-31h-5z"/><path class="cls-1" d="M21 37.531l7 32"/><path class="cls-4" d="M30 43.531l3 17"/><path id="Shape_76_copy" data-name="Shape 76 copy" class="cls-4" d="M12 44l4 21" transform="translate(0 -.469)"/><path id="Shape_75_copy" data-name="Shape 75 copy" class="cls-1" d="M17 38l7 32" transform="translate(0 -.469)"/><path id="Shape_74_copy" data-name="Shape 74 copy" class="cls-1" d="M49.132 50.805l2.07-8.219a8.154 8.154 0 0 1 5.174-4.11c3.873-1.1 7.566-2.072 10.348-1.027s7.753 3.848 7.244 8.219-3.1 17.465-3.1 17.465-2.932 6.18-6.209 7.192-7.786.781-9.313 0a13.924 13.924 0 0 1-5.174-5.137c-1.547-2.595-1.618-2.316-2.07-4.109s1.03-10.274 1.03-10.274z" transform="translate(0 -.469)"/><path id="Shape_81_copy" data-name="Shape 81 copy" class="cls-3" d="M66 38l-7 32h-4l-1-1 7-31h5z" transform="translate(0 -.469)"/><path id="Shape_75_copy_2" data-name="Shape 75 copy 2" class="cls-1" d="M62 38l-7 32" transform="translate(0 -.469)"/><path id="Shape_76_copy_2" data-name="Shape 76 copy 2" class="cls-4" d="M53 44l-3 17" transform="translate(0 -.469)"/><path id="Shape_76_copy_2-2" data-name="Shape 76 copy 2" class="cls-4" d="M71 44l-4 21" transform="translate(0 -.469)"/><path id="Shape_75_copy_2-2" data-name="Shape 75 copy 2" class="cls-1" d="M66 38l-7 32" transform="translate(0 -.469)"/></svg>