<svg xmlns="http://www.w3.org/2000/svg" width="30" height="36" viewBox="0 0 30 36"><defs><style>.cls-1,.cls-2{fill:none;stroke:#282832;stroke-width:1px;fill-rule:evenodd}.cls-2{fill:#ea6924}</style></defs><path class="cls-1" d="M23 34s4.955-3.342 4-8-2.912-5.585-2-9a17.575 17.575 0 0 1 2-5s-3.76 1.728-5 5-2 5-2 5 1.188-7.032-2-11a37.384 37.384 0 0 0-8-7s2.939 4.148 1 7-6.718 6.321-6 9 2 6 2 6M4 20s-4.113 4.756-2 9a15.254 15.254 0 0 0 5 6"/><path class="cls-2" d="M11 35s-2.715-2.4-3-5 3.287-4.688 3-7 4 4 4 4l2-3 1 4s4.727-1.688 5-4 .011 4.178-1 6a36.976 36.976 0 0 1-4 5h-7z"/></svg>