<svg xmlns="http://www.w3.org/2000/svg" width="34" height="30" viewBox="0 0 34 30"><defs><style>.cls-1{fill:#cfd6db}.cls-1,.cls-2,.cls-3{stroke:#282832;stroke-width:1px}.cls-1,.cls-2{fill-rule:evenodd}.cls-2{fill:none}.cls-3{fill:#ea6924}</style></defs><path class="cls-1" d="M20 17.3l2.333-4.649 2.333 6.973L29.333 8l1.167 9.3 2.333-4.649L34 17.3"/><path class="cls-2" d="M19 11s-.8-7.9-6-9-8.205.306-10 3-1.018 8.032 0 9 5.2 6.012 5 8 .477 6.981 3 7c4.172.032 6-7 6-7"/><path class="cls-2" d="M10 8a2.759 2.759 0 0 1 3-2c2.329.343 2.871 5.376 1 8s-.262 3.824 0 4M8 5s-3.606 2.255-3 5 1 3 1 3"/><circle class="cls-3" cx="14" cy="18" r="3"/></svg>