<svg version="1.1"  xmlns="http://www.w3.org/2000/svg" xmlns:xlink="http://www.w3.org/1999/xlink" x="0px" y="0px"
	 viewBox="0 0 100 100" style="enable-background:new 0 0 100 100;" xml:space="preserve">
<g>
	<path d="M-23.492,123.465c-2.153-0.492-3.539-2.586-3.074-4.746l12.644-59.238c0.461-2.157,2.59-3.539,4.75-3.075
		c2.156,0.461,3.535,2.586,3.074,4.747l-12.644,59.234C-19.145,122.266-20.824,124.074-23.492,123.465L-23.492,123.465z
		 M-23.492,123.465"/>
	<g>
		<path d="M116.844,120.387l-12.649-59.234c-0.461-2.161,0.918-4.286,3.078-4.747c2.157-0.464,4.286,0.918,4.747,3.075
			l12.648,59.238c0.461,2.16-0.926,4.242-3.078,4.746C119.246,124.012,117.242,122.266,116.844,120.387L116.844,120.387z
			 M116.844,120.387"/>
		<path d="M171.273,10.856c-11.453-42.45-26.57-68.789-26.746-68.989c-0.457-0.515-10.8-12.066-29.152-16.988
			C113.676-96.68,87.457-111,49.047-111c-38.406,0-64.625,14.32-66.324,35.879c-18.348,4.922-28.696,16.473-29.149,16.988
			c-0.176,0.2-15.297,26.543-26.75,68.989c-10.547,39.101-20.5,101.015-7.996,173.933c0.008,0.043,3.328,22.535,3.328,22.535
			c0.289,1.961,1.973,3.418,3.957,3.418h27.289c1.993,0,3.68-1.468,3.961-3.441l3.11-22.063l3.363-6.996l0.937,4.098
			c0.418,1.82,2.036,3.109,3.903,3.109h160.746c1.867,0,3.484-1.289,3.902-3.109l0.938-4.098l3.363,6.996l3.109,22.063
			c0.282,1.973,1.969,3.441,3.961,3.441h27.289c1.985,0,3.668-1.457,3.957-3.418c0,0,3.321-22.492,3.329-22.535
			C191.773,111.871,181.82,49.957,171.273,10.856L171.273,10.856z M114.699-66.984c11.613,3.457,19.43,9.918,22.438,12.754
			l-8.926,39.332h-75.16v-15.856l8.23-16.984c8.707,0.668,34.77,1.629,47.211-9.442C111.594-59.945,113.664-63.226,114.699-66.984
			L114.699-66.984z M-30.203-6.898h75.25v161.054h-78.313C-35.996,137.528-47.094,60.324-30.203-6.898L-30.203-6.898z
			 M-31.633,162.156h76.684v3.645h-75.848L-31.633,162.156z M49.047-40.84l-6.074-12.539c-0.164-0.433-0.391-0.851-0.711-1.222
			c-1.875-2.157-3.778-4.461-5.614-6.789h24.797c-1.836,2.328-3.738,4.632-5.609,6.789c-0.32,0.371-0.551,0.789-0.711,1.222
			L49.047-40.84z M30.691-69.39c-3.968-5.684-6.769-10.61-6.769-12.75c0-4.493,10.332-7.629,25.125-7.629
			c14.797,0,25.129,3.136,25.129,7.629c0,2.14-2.801,7.07-6.77,12.75H30.691z M49.047-103c34.398,0,58.422,12.387,58.422,30.125
			c0,3.961-1.407,7.141-4.293,9.715c-7.864,7-24.981,8.078-36.227,7.727c6.387-7.95,15.227-20.133,15.227-26.707
			c0-10.082-11.766-15.629-33.129-15.629c-21.359,0-33.125,5.547-33.125,15.629c0,6.574,8.84,18.757,15.223,26.707
			C19.898-55.082,2.785-56.16-5.078-63.16c-2.887-2.574-4.293-5.754-4.293-9.715C-9.371-90.613,14.652-103,49.047-103L49.047-103z
			 M-16.602-66.984c1.036,3.758,3.11,7.043,6.211,9.804c12.438,11.071,38.5,10.11,47.207,9.442l8.235,16.984v15.856h-75.16
			l-8.93-39.344C-36.051-57.074-28.277-63.515-16.602-66.984L-16.602-66.984z M-50.074,202.742h-20.36l-0.484-3.316h21.313
			L-50.074,202.742z M-48.48,191.426h-23.618l-0.484-3.313h24.57L-48.48,191.426z M-45.938,180.113h-27.906
			c-11.375-69.91-1.816-129.214,8.317-166.882c7.113-26.45,15.472-46.161,20.648-57.055l7.457,32.859
			c-19.598,75.196-4.344,163.211-3.207,169.512c0.02,0.168,1.609,7.184,1.609,7.184L-45.938,180.113z M-28.137,177.453l-0.832-3.652
			h74.016v3.652H-28.137z M126.234,177.453H53.051v-3.652h74.019L126.234,177.453z M128.898,165.801H53.047v-3.645h76.683
			L128.898,165.801z M131.363,154.156H53.047V-6.898h75.254C145.191,60.324,134.094,137.528,131.363,154.156L131.363,154.156z
			 M168.531,202.742h-20.359l-0.465-3.316h21.313L168.531,202.742z M170.195,191.426h-23.617l-0.469-3.313h24.571L170.195,191.426z
			 M171.941,180.113h-27.902l-6.918-14.382c0,0,1.59-7.016,1.606-7.184c1.136-6.301,16.39-94.316-3.207-169.512l7.46-32.867
			c5.149,10.84,13.461,30.422,20.571,56.774C173.727,50.668,183.336,110.078,171.941,180.113L171.941,180.113z M171.941,180.113"/>
	</g>
</g>
</svg>
