<?xml version="1.0" encoding="iso-8859-1"?>
<!-- Generator: Adobe Illustrator 19.2.0, SVG Export Plug-In . SVG Version: 6.00 Build 0)  -->
<svg version="1.1" id="Layer_1" xmlns="http://www.w3.org/2000/svg" xmlns:xlink="http://www.w3.org/1999/xlink" x="0px" y="0px"
	 viewBox="-49 141 512 512" style="enable-background:new -49 141 512 512;" xml:space="preserve">
<path style="fill:#E2E5E7;" d="M79,141c-17.6,0-32,14.4-32,32v448c0,17.6,14.4,32,32,32h320c17.6,0,32-14.4,32-32V269L303,141H79z"
	/>
<path style="fill:#B0B7BD;" d="M335,269h96L303,141v96C303,254.6,317.4,269,335,269z"/>
<polygon style="fill:#CAD1D8;" points="431,365 335,269 431,269 "/>
<path style="fill:#F15642;" d="M367,557c0,8.8-7.2,16-16,16H-1c-8.8,0-16-7.2-16-16V397c0-8.8,7.2-16,16-16h352c8.8,0,16,7.2,16,16
	V557z"/>
<g>
	<path style="fill:#FFFFFF;" d="M56.456,444.152c0-4.224,3.328-8.832,8.688-8.832h29.552c16.64,0,31.616,11.136,31.616,32.48
		c0,20.224-14.976,31.488-31.616,31.488h-21.36v16.896c0,5.632-3.568,8.816-8.176,8.816c-4.224,0-8.688-3.184-8.688-8.816v-72.032
		H56.456z M73.336,451.432v31.872h21.36c8.576,0,15.36-7.568,15.36-15.504c0-8.944-6.784-16.368-15.36-16.368H73.336z"/>
	<path style="fill:#FFFFFF;" d="M142.616,444.152c0-4.224,3.328-8.832,8.704-8.832h29.552c16.64,0,31.616,11.136,31.616,32.48
		c0,20.224-14.976,31.488-31.616,31.488h-21.36v16.896c0,5.632-3.584,8.816-8.192,8.816c-4.224,0-8.704-3.184-8.704-8.816V444.152z
		 M159.496,451.432v31.872h21.36c8.576,0,15.36-7.568,15.36-15.504c0-8.944-6.784-16.368-15.36-16.368H159.496z"/>
	<path style="fill:#FFFFFF;" d="M252.68,452.472h-22.368c-11.136,0-11.136-16.368,0-16.368h60.496c11.392,0,11.392,16.368,0,16.368
		h-21.232v64.608c0,11.12-16.896,11.392-16.896,0V452.472z"/>
</g>
<path style="fill:#CAD1D8;" d="M351,573H47v16h304c8.8,0,16-7.2,16-16v-16C367,565.8,359.8,573,351,573z"/>
</svg>
