<?xml version="1.0" encoding="utf-8"?>
<!-- Generator: Adobe Illustrator 19.2.0, SVG Export Plug-In . SVG Version: 6.00 Build 0)  -->
<svg version="1.1" id="Layer_1" xmlns="http://www.w3.org/2000/svg" xmlns:xlink="http://www.w3.org/1999/xlink" x="0px" y="0px"
	 viewBox="0 0 453 430" style="enable-background:new 0 0 453 430;" xml:space="preserve">
<g>
	<g>
		<defs>
			<rect id="SVGID_1_" x="24" y="17" width="392" height="392"/>
		</defs>
		<clipPath id="SVGID_2_">
			<use xlink:href="#SVGID_1_"  style="overflow:visible;"/>
		</clipPath>
		<path style="clip-path:url(#SVGID_2_);" d="M411.199,381.16l-94.238-94.238c23.359-28.481,37.437-64.961,37.437-104.723
			C354.398,91,280.398,17,189.199,17C97.922,17,24,91,24,182.199s73.922,165.199,165.199,165.199c39.762,0,76.16-14,104.641-37.359
			l94.238,94.16c6.402,6.403,16.723,6.403,23.121,0C417.602,397.879,417.602,387.48,411.199,381.16L411.199,381.16z M189.199,314.52
			c-73.039,0-132.398-59.36-132.398-132.321S116.16,49.801,189.199,49.801c72.961,0,132.403,59.437,132.403,132.398
			S262.16,314.52,189.199,314.52L189.199,314.52z M189.199,314.52"/>
	</g>
</g>
</svg>
