<?xml version="1.0" encoding="utf-8"?>
<!-- Generator: Adobe Illustrator 19.2.0, SVG Export Plug-In . SVG Version: 6.00 Build 0)  -->
<svg version="1.1" id="Layer_1" xmlns="http://www.w3.org/2000/svg" xmlns:xlink="http://www.w3.org/1999/xlink" x="0px" y="0px"
	 viewBox="0 0 358 447" style="enable-background:new 0 0 358 447;" xml:space="preserve">
<g>
	<path d="M297.84,397.121V66.398C297.84,49.68,284.238,36,267.441,36H92.398C75.68,36,62,49.602,62,66.398v330.801
		c0,16.723,13.602,30.403,30.398,30.403h175.043C284.16,427.52,297.84,413.922,297.84,397.121L297.84,397.121z M81.602,106.48
		H278.16v222.559H81.602V106.48z M92.398,55.602h175.043c5.918,0,10.797,4.796,10.797,10.796v20.481H81.602V66.398
		C81.602,60.398,86.48,55.602,92.398,55.602L92.398,55.602z M81.602,397.121v-48.562H278.16v48.562
		c0,5.918-4.801,10.801-10.801,10.801H92.398C86.48,407.922,81.602,403.121,81.602,397.121L81.602,397.121z M81.602,397.121"/>
	<path d="M199.762,369.281H160c-5.441,0-9.84,4.399-9.84,9.84c0,5.438,4.399,9.84,9.84,9.84h39.762c5.437,0,9.84-4.402,9.84-9.84
		C209.602,373.68,205.199,369.281,199.762,369.281L199.762,369.281z M199.762,369.281"/>
</g>
</svg>
