<?xml version="1.0" encoding="iso-8859-1"?>
<!-- Generator: Adobe Illustrator 19.2.0, SVG Export Plug-In . SVG Version: 6.00 Build 0)  -->
<svg version="1.1" id="Layer_1" xmlns="http://www.w3.org/2000/svg" xmlns:xlink="http://www.w3.org/1999/xlink" x="0px" y="0px"
	 viewBox="-49 141 512 512" style="enable-background:new -49 141 512 512;" xml:space="preserve">
<path style="fill:#E2E5E7;" d="M79,141c-17.6,0-32,14.4-32,32v448c0,17.6,14.4,32,32,32h320c17.6,0,32-14.4,32-32V269L303,141H79z"
	/>
<path style="fill:#B0B7BD;" d="M335,269h96L303,141v96C303,254.6,317.4,269,335,269z"/>
<polygon style="fill:#CAD1D8;" points="431,365 335,269 431,269 "/>
<path style="fill:#576D7E;" d="M367,557c0,8.8-7.2,16-16,16H-1c-8.8,0-16-7.2-16-16V397c0-8.8,7.2-16,16-16h352c8.8,0,16,7.2,16,16
	V557z"/>
<g>
	<path style="fill:#FFFFFF;" d="M83.784,452.472H61.4c-11.136,0-11.136-16.368,0-16.368h60.512c11.392,0,11.392,16.368,0,16.368
		h-21.248v64.592c0,11.12-16.896,11.392-16.896,0v-64.592H83.784z"/>
	<path style="fill:#FFFFFF;" d="M175.416,467.176l22.272-27.888c6.656-8.688,19.568,2.432,12.288,10.752
		c-7.68,9.088-15.728,18.944-23.424,29.024l26.112,32.496c7.024,9.6-7.04,18.816-13.952,9.344l-23.536-30.192l-23.152,30.832
		c-6.528,9.328-20.992-1.152-13.68-9.856l25.696-32.624c-8.048-10.096-15.856-19.936-23.664-29.024
		c-8.064-9.6,6.912-19.44,12.784-10.48L175.416,467.176z"/>
	<path style="fill:#FFFFFF;" d="M249.288,452.472H226.92c-11.136,0-11.136-16.368,0-16.368h60.496c11.392,0,11.392,16.368,0,16.368
		h-21.232v64.592c0,11.12-16.896,11.392-16.896,0V452.472z"/>
</g>
<path style="fill:#CAD1D8;" d="M351,573H47v16h304c8.8,0,16-7.2,16-16v-16C367,565.8,359.8,573,351,573z"/>
</svg>
