<?xml version="1.0" encoding="utf-8"?>
<!-- Generator: Adobe Illustrator 19.2.0, SVG Export Plug-In . SVG Version: 6.00 Build 0)  -->
<svg version="1.1" id="Layer_1" xmlns="http://www.w3.org/2000/svg" xmlns:xlink="http://www.w3.org/1999/xlink" x="0px" y="0px"
	 viewBox="0 0 274 269" style="enable-background:new 0 0 274 269;" xml:space="preserve">
<g>
	<g>
		<defs>
			<rect id="SVGID_1_" x="26" y="12" width="224.88" height="238.8"/>
		</defs>
		<clipPath id="SVGID_2_">
			<use xlink:href="#SVGID_1_"  style="overflow:visible;"/>
		</clipPath>
		<path style="clip-path:url(#SVGID_2_);" d="M138.277,145.47c33.289,0,60.094-40.011,60.094-73.14
			c0-33.133-26.961-60.09-60.094-60.09c-33.132,0-60.093,26.957-60.093,60.094C78.184,105.459,104.988,145.47,138.277,145.47
			L138.277,145.47z M138.277,28.052c24.414,0,44.278,19.864,44.278,44.282c0,25.265-20.848,57.324-44.278,57.324
			C114.848,129.658,94,97.599,94,72.334C94,47.916,113.863,28.052,138.277,28.052L138.277,28.052z M138.277,28.052"/>
		<path style="clip-path:url(#SVGID_2_);" d="M250.445,240.635l-3.078-18.481c-6.414-38.477-39.383-66.406-78.39-66.406h-61.399
			c-39.008,0-71.976,27.929-78.39,66.406l-3.079,18.481c-0.382,2.292,0.262,4.636,1.766,6.41c1.5,1.773,3.707,2.797,6.031,2.797
			h208.742c2.325,0,4.532-1.024,6.032-2.797C250.184,245.271,250.828,242.927,250.445,240.635L250.445,240.635z M147.465,171.564
			l-9.188,7.809l-9.187-7.809H147.465z M211.414,234.025v-18.183c0-4.368-3.539-7.907-7.906-7.907s-7.906,3.539-7.906,7.907v18.183
			H80.953v-18.183c0-4.368-3.539-7.907-7.906-7.907c-4.367,0-7.91,3.539-7.91,7.907v18.183H43.242l1.543-9.269
			c4.981-29.887,29.965-51.825,59.961-53.129l28.41,24.144c1.477,1.254,3.297,1.883,5.121,1.883c1.825,0,3.645-0.629,5.121-1.883
			l28.411-24.144c29.996,1.304,54.976,23.242,59.961,53.129l1.542,9.269H211.414z M211.414,234.025"/>
	</g>
</g>
</svg>
