<?xml version="1.0" encoding="iso-8859-1"?>
<!-- Generator: Adobe Illustrator 19.2.1, SVG Export Plug-In . SVG Version: 6.00 Build 0)  -->
<svg version="1.1" id="Layer_1" xmlns="http://www.w3.org/2000/svg" xmlns:xlink="http://www.w3.org/1999/xlink" x="0px" y="0px"
	 viewBox="0 0 100 100" style="enable-background:new 0 0 100 100;" xml:space="preserve">
<g>
	<path d="M229.027,184.691h-1.621v-11.804c0-30.512-24.523-59.188-54.668-63.918l-60.718-9.535
		c-24.555-3.852-44.532-27.207-44.532-52.063V-132c0-3.312-2.687-6-6-6H-120.66c-3.313,0-6,2.688-6,6v31.387H-131
		c-3.312,0-6,2.687-6,6v36.425c0,3.317,2.688,6,6,6h4.34v220.079c-3.113,0.218-5.567,2.808-5.567,5.976v40.637
		c0,12.957,10.539,23.496,23.493,23.496c6.941,0,13.191-3.027,17.496-7.828c4.304,4.801,10.55,7.828,17.492,7.828
		c6.941,0,13.191-3.027,17.496-7.828c4.305,4.801,10.551,7.828,17.496,7.828c12.953,0,23.492-10.539,23.492-23.496v-9.332
		l63.864,14.258C50.871,230.031,60.312,238,71.578,238c6.942,0,13.192-3.027,17.496-7.828c4.305,4.801,10.551,7.828,17.492,7.828
		c6.942,0,13.192-3.027,17.496-7.828c4.305,4.801,10.551,7.828,17.493,7.828c6.941,0,13.191-3.027,17.496-7.828
		c4.304,4.801,10.551,7.828,17.492,7.828c6.945,0,13.191-3.027,17.496-7.828c4.305,4.801,10.555,7.828,17.496,7.828
		c12.953,0,23.492-10.539,23.492-23.496v-23.813C235.027,187.375,232.344,184.691,229.027,184.691L229.027,184.691z M-114.66-126
		h86.777v25.387H-93v-2c0-3.313-2.688-6-6-6c-3.312,0-6,2.687-6,6v2h-9.66V-126z M-125-64.188v-24.425h20v24.425H-125z M-93-88.613
		h89.117v24.425H-93V-88.613z M-105-52.188v2c0,3.317,2.688,6,6,6c3.312,0,6-2.683,6-6v-2H2.117c3.313,0,6-2.683,6-6v-36.425
		c0-3.313-2.687-6-6-6h-18V-126h71.371V47.371c0,30.512,24.524,59.188,54.668,63.918l60.723,9.531
		c24.555,3.856,44.527,27.211,44.527,52.067v11.804H54.746l-74.699-16.679c-0.43-0.098-0.867-0.145-1.309-0.145h-93.398V53.371
		h44.777c29.774,0,54-24.226,54-54v-33.559c0-3.312-2.687-6-6-6c-3.316,0-6,2.688-6,6v33.559c0,23.156-18.844,42-42,42h-44.777
		v-93.559H-105z M223.027,214.504c0,6.34-5.156,11.496-11.492,11.496c-6.34,0-11.496-5.156-11.496-11.496c0-3.313-2.684-6-6-6
		c-3.312,0-6,2.687-6,6c0,6.34-5.156,11.496-11.492,11.496c-6.34,0-11.496-5.156-11.496-11.496c0-3.313-2.688-6-6-6
		c-3.313,0-6,2.687-6,6c0,6.34-5.156,11.496-11.492,11.496c-6.34,0-11.497-5.156-11.497-11.496c0-3.313-2.687-6-6-6
		c-3.312,0-6,2.687-6,6c0,6.34-5.156,11.496-11.496,11.496c-6.336,0-11.492-5.156-11.492-11.496c0-3.313-2.687-6-6-6
		c-3.312,0-6,2.687-6,6c0,6.34-5.156,11.496-11.496,11.496c-6.336,0-11.492-5.156-11.492-11.496c0-2.809-1.953-5.242-4.695-5.856
		l-75.344-16.82c-1.777-0.398-3.637,0.031-5.059,1.172c-1.422,1.137-2.25,2.859-2.25,4.684v16.82c0,6.34-5.156,11.496-11.492,11.496
		c-6.34,0-11.496-5.156-11.496-11.496c0-3.313-2.684-6-6-6c-3.312,0-6,2.687-6,6c0,6.34-5.156,11.496-11.492,11.496
		c-6.34,0-11.496-5.156-11.496-11.496c0-3.313-2.688-6-6-6c-3.313,0-6,2.687-6,6c0,6.34-5.157,11.496-11.492,11.496
		c-6.34,0-11.497-5.156-11.497-11.496v-34.637h98.305l74.699,16.68c0.43,0.094,0.868,0.144,1.309,0.144h168.945v17.813H223.027z
		 M223.027,214.504"/>
</g>
</svg>
